<svg xmlns="http://www.w3.org/2000/svg" width="9.06" height="55.32" viewBox="0 0 9.06 55.32"><path d="M3.588.156C5.3.156,6.42-.876,6.42-2.22S5.58-4.1,4.584-4.548L3.276-5.124C2.64-5.4,1.788-5.772,1.788-6.768c0-.9.744-1.488,1.86-1.488a2.807,2.807,0,0,1,2.064.876l.408-.468A3.341,3.341,0,0,0,3.648-8.9a2.332,2.332,0,0,0-2.592,2.2A2.426,2.426,0,0,0,2.832-4.524l1.308.576c.864.384,1.548.72,1.548,1.776,0,1-.8,1.68-2.1,1.68A3.368,3.368,0,0,1,1.056-1.656l-.444.5A3.893,3.893,0,0,0,3.588.156Zm10.428,0a3.278,3.278,0,0,0,2.616-1.248l-.408-.456A2.8,2.8,0,0,1,14.052-.492c-1.836,0-2.976-1.524-2.976-3.912,0-2.364,1.164-3.852,3.012-3.852a2.459,2.459,0,0,1,1.9.876l.408-.468a3.026,3.026,0,0,0-2.3-1.056c-2.22,0-3.768,1.728-3.768,4.524S11.856.156,14.016.156Zm7.74-8.3h1.668c1.512,0,2.352.468,2.352,1.74s-.84,1.86-2.352,1.86H21.756ZM26.688,0,24.324-4.008a2.3,2.3,0,0,0,2.184-2.4c0-1.7-1.176-2.34-2.916-2.34H21.036V0h.72V-3.948h1.788L25.872,0Zm7.356.156C36.18.156,37.68-1.62,37.68-4.4s-1.5-4.5-3.636-4.5c-2.112,0-3.624,1.728-3.624,4.5S31.932.156,34.044.156Zm0-.648c-1.728,0-2.868-1.536-2.868-3.912s1.14-3.852,2.868-3.852S36.936-6.78,36.936-4.4,35.784-.492,34.044-.492ZM42.324,0h4.7V-.624H43.044V-8.748h-.72Zm8.9,0h4.7V-.624H51.948V-8.748h-.72Z" transform="translate(8.904 55.932) rotate(-90)" fill="#fff"/></svg>